<?xml version="1.0" encoding="utf-8"?>
<!-- Generator: Adobe Illustrator 17.1.0, SVG Export Plug-In . SVG Version: 6.00 Build 0)  -->
<!DOCTYPE svg PUBLIC "-//W3C//DTD SVG 1.1//EN" "http://www.w3.org/Graphics/SVG/1.1/DTD/svg11.dtd">
<svg version="1.1" id="behance" xmlns="http://www.w3.org/2000/svg" xmlns:xlink="http://www.w3.org/1999/xlink" x="0px" y="0px"
	 viewBox="0 0 500 500" enable-background="new 0 0 500 500" xml:space="preserve">
<g>
	<path fill="#FFFFFF" d="M167.5,262.1H86.7v74.3h77.1c11.5-0.3,33-3.9,33-36.2C196.8,261.6,167.5,262.1,167.5,262.1z"/>
	<path fill="#FFFFFF" d="M187.2,186.1c0-29-19.6-29-19.6-29h-10.4H86.7v62h75.8C175.7,219.3,187.2,215,187.2,186.1z"/>
	<path fill="#FFFFFF" d="M374.6,219.3c-43,0-48.9,42.8-48.9,42.8h91.2C416.9,262.1,417.5,219.3,374.6,219.3z"/>
	<path fill="#FFFFFF" d="M440.4,0H58.8C26.4,0,0,26.4,0,58.8v381.5c0,32.6,26.4,58.8,58.8,58.8h381.5c32.6,0,58.8-26.4,58.8-58.8
		V58.8C499.4,26.4,473,0,440.4,0z M313.8,124.3h114.7v34.3H313.8V124.3z M255.8,303.6c0,84.7-88.3,82.1-88.3,82.1H86.7h-2.4H23
		V107.9h61.4h2.4h80.8c43.9,0,78.7,24.3,78.7,73.9s-42.4,52.8-42.4,52.8C259.6,234.7,255.8,303.6,255.8,303.6z M470.1,299.2H326.3
		c0,51.6,48.9,48.3,48.9,48.3c46.1,0,44.6-29.9,44.6-29.9h48.9c0,79.2-95,73.9-95,73.9c-114,0-106.7-106.2-106.7-106.2
		s-0.2-106.7,106.7-106.7C485.9,178.5,470.1,299.2,470.1,299.2z"/>
	<path fill="none" d="M373.4,178.5c-106.8,0-106.7,106.7-106.7,106.7s-7.3,106.2,106.7,106.2c0,0,95,5.5,95-73.9h-48.9
		c0,0,1.6,29.9-44.6,29.9c0,0-48.9,3.3-48.9-48.3H470C470.1,299.2,485.9,178.5,373.4,178.5z M416.9,262.1h-91.3
		c0,0,6-42.8,48.9-42.8S416.9,262.1,416.9,262.1z"/>
	<rect x="313.8" y="124.3" fill="none" width="114.7" height="34.3"/>
</g>
</svg>
