<?xml version="1.0" encoding="utf-8"?>
<!-- Generator: Adobe Illustrator 17.1.0, SVG Export Plug-In . SVG Version: 6.00 Build 0)  -->
<!DOCTYPE svg PUBLIC "-//W3C//DTD SVG 1.1//EN" "http://www.w3.org/Graphics/SVG/1.1/DTD/svg11.dtd">
<svg version="1.1" id="Layer_1" xmlns="http://www.w3.org/2000/svg" xmlns:xlink="http://www.w3.org/1999/xlink" x="0px" y="0px"
	 viewBox="0 0 500 500" enable-background="new 0 0 500 500" xml:space="preserve">
<g>
	<path fill="#FFFFFF" d="M423.7,0H75C33.6,0,0,33.6,0,75v348.7c0,41.4,33.6,75,75,75h348.7c41.4,0,75-33.6,75-75V75
		C498.7,33.6,465.1,0,423.7,0z M393.7,247.7H340V444h-80.5V247.7h-40.1V180h40.1v-40.6c0-55.2,22.6-88.1,87.3-88.1h53.7V119h-33.6
		c-25.1,0-26.8,9.5-26.8,27v33.8h60.9L393.7,247.7z"/>
</g>
</svg>
