<?xml version="1.0" encoding="utf-8"?>
<!-- Generator: Adobe Illustrator 17.1.0, SVG Export Plug-In . SVG Version: 6.00 Build 0)  -->
<!DOCTYPE svg PUBLIC "-//W3C//DTD SVG 1.1//EN" "http://www.w3.org/Graphics/SVG/1.1/DTD/svg11.dtd">
<svg version="1.1" id="Layer_1" xmlns="http://www.w3.org/2000/svg" xmlns:xlink="http://www.w3.org/1999/xlink" x="0px" y="0px"
	 viewBox="0 0 500 500" enable-background="new 0 0 500 500" xml:space="preserve">
<g>
	<path fill="#FFFFFF" d="M462.5,0H36.9C16.5,0,0,16.1,0,36v427.5c0,19.9,16.5,36,36.9,36h425.7c20.4,0,37-16.2,37-36V36
		C499.5,16.1,482.9,0,462.5,0z M148.1,425.7H74V187.3h74.1V425.7z M111.1,154.7c-23.7,0-42.9-19.3-42.9-43
		c0-23.7,19.2-42.9,42.9-42.9c23.7,0,42.9,19.3,42.9,42.9C154,135.4,134.8,154.7,111.1,154.7z M425.6,425.7h-74V309.7
		c0-27.7-0.5-63.2-38.5-63.2c-38.6,0-44.4,30.1-44.4,61.2v117.9h-74.1V187.3h71.1v32.6h1c9.9-18.7,34.1-38.5,70.1-38.5
		c75,0,88.8,49.4,88.8,113.6V425.7z"/>
</g>
</svg>
